<svg xmlns="http://www.w3.org/2000/svg" viewBox="0 0 40 40"><defs><style>.cls-1{fill:#00243d;}.cls-2{fill:none;}</style></defs><title>Asset 131</title><g id="Layer_2" data-name="Layer 2"><g id="Layer_1-2" data-name="Layer 1"><path class="cls-1" d="M20,8.58a5.26,5.26,0,1,1-5.26,5.26A5.26,5.26,0,0,1,20,8.58m0-1.31a6.57,6.57,0,1,0,6.57,6.57A6.57,6.57,0,0,0,20,7.27Z"/><path class="cls-1" d="M20,36.42c-5.73,0-11.53-1.39-11.53-4.05,0-2.5,5-3.71,9.28-4a.63.63,0,0,1,.61.33L19.64,31h.72l1.27-2.31a.67.67,0,0,1,.62-.33c4.28.27,9.28,1.48,9.28,4C31.53,35,25.73,36.42,20,36.42Zm-2.58-6.69c-5,.38-7.64,1.76-7.64,2.64,0,1.12,4,2.74,10.22,2.74s10.22-1.62,10.22-2.74c0-.88-2.65-2.26-7.64-2.64L21.32,32a.64.64,0,0,1-.57.34h-1.5a.67.67,0,0,1-.58-.34Z"/><path class="cls-1" d="M20.75,32.35h-1.5a.67.67,0,0,1-.58-.34L11.21,18.47a10,10,0,1,1,17.58,0L21.32,32A.64.64,0,0,1,20.75,32.35ZM19.64,31h.72l7.28-13.2a8.73,8.73,0,1,0-15.28,0Z"/><rect class="cls-1" x="17.37" y="10.8" width="5.26" height="1.31"/><rect class="cls-1" x="17.37" y="13.43" width="3.5" height="1.31"/><rect class="cls-1" x="17.37" y="16.06" width="1.75" height="1.31"/><rect class="cls-2" width="40" height="40"/></g></g></svg>