<svg xmlns="http://www.w3.org/2000/svg" viewBox="0 0 40 40"><defs><style>.cls-1,.cls-3,.cls-4,.cls-5{fill:none;}.cls-1,.cls-3,.cls-4{stroke:#00243d;}.cls-1,.cls-3{stroke-miterlimit:10;}.cls-2{fill:#00243d;}.cls-3{stroke-width:0.5px;}.cls-4{stroke-linecap:round;stroke-linejoin:round;}</style></defs><title>Asset 183</title><g id="Layer_2" data-name="Layer 2"><g id="Layer_1-2" data-name="Layer 1"><path class="cls-1" d="M26.43,28H3.58A2.48,2.48,0,0,1,1.1,25.52v-13A2.48,2.48,0,0,1,3.58,10H30.39a2.48,2.48,0,0,1,2.48,2.49v9.78"/><rect class="cls-2" x="7.78" y="14.91" width="1.27" height="8.92"/><rect class="cls-2" x="15.71" y="14.91" width="1.27" height="8.92"/><rect class="cls-2" x="23.65" y="14.91" width="1.27" height="8.92"/><circle class="cls-1" cx="30.03" cy="25.36" r="4.22"/><path class="cls-3" d="M27.39,26.22a2.77,2.77,0,0,1,1.78-3.5"/><line class="cls-1" x1="32.92" y1="28.26" x2="34.66" y2="29.99"/><rect class="cls-4" x="35.14" y="29.22" width="2.36" height="4.85" transform="translate(-11.74 34.95) rotate(-45)"/><rect class="cls-5" width="40" height="40"/></g></g></svg>